<svg width="147" height="180" viewBox="0 0 147 180" fill="none" xmlns="http://www.w3.org/2000/svg">
    <g clip-path="url(#a)">
        <path
            d="M135.89 81.28c-.07-1.5-.3-3-.68-4.45a6.44 6.44 0 0 0-2.09-3.37 5.16 5.16 0 0 0-3.64-1c-2.64.24-5 1.87-6.74 3.77a16.7 16.7 0 0 0-2.17 3c-.04-.73-.13-1.44-.26-2.15-.21-1.13-.5-2.33-1.25-3.23a3.11 3.11 0 0 0-2.9-1c-2.03.27-3.96 1.75-5.47 3.05a22.07 22.07 0 0 0-5.02 6.3c.1-1.86.07-3.74-.11-5.6-.16-1.6-.64-3.24-2.45-3.52-1.5-.25-3.11.41-4.4 1.1-3.05 1.59-5.41 4.28-7.47 6.97a50.94 50.94 0 0 0-5.42 8.92 56.88 56.88 0 0 0-4.06 11.51.69.69 0 0 0 .38.81l-.62.1c-.93.14-.53 1.55.4 1.4a2252.98 2252.98 0 0 1 51.7-7.15.77.77 0 0 0 .7-.53 41.86 41.86 0 0 0 1.67-9.96c.07-1.65.03-3.31-.1-4.97Z"
            fill="#B5DAED" />
        <path
            d="M59.6 66.58a19.35 19.35 0 0 0-.61-4 5.8 5.8 0 0 0-1.9-3.02 4.77 4.77 0 0 0-3.33-.9c-2.4.22-4.54 1.68-6.13 3.41-.75.82-1.41 1.72-1.96 2.69-.04-.65-.12-1.3-.24-1.95a6.13 6.13 0 0 0-1.17-2.89 2.86 2.86 0 0 0-2.64-.9c-1.85.25-3.6 1.57-4.98 2.74a20 20 0 0 0-4.55 5.68c.1-1.67.06-3.35-.1-5.02-.14-1.43-.58-2.93-2.24-3.17-1.37-.21-2.83.38-4.03.98-2.78 1.43-4.92 3.83-6.8 6.25a45.65 45.65 0 0 0-4.94 8A50.71 50.71 0 0 0 10.3 84.8c-.08.34-.7 2.2.14 2.07a2125.12 2125.12 0 0 1 47.06-6.41.7.7 0 0 0 .65-.49 37.1 37.1 0 0 0 1.45-13.39Z"
            fill="#BCBBE3" />
        <path
            d="M107.5 152.97a18.08 18.08 0 0 0-1.1-5.48 12.16 12.16 0 0 0-3.12-4.24 18.12 18.12 0 0 0-7.93-4.23c-3.49-.88-7.11-1.04-10.66-1.61l-5.23-10-1.7-3.26a.74.74 0 0 0-1.27 0l-7.7 13.11-.9 1.54c-5.79.67-11.68 1.5-17 4a26.77 26.77 0 0 0-12.5 11.8 21.97 21.97 0 0 0-2.5 10 .73.73 0 0 0 .74.74.73.73 0 0 0 .73-.73v-.03l69.11-2.77c.07.9 1.5.9 1.47-.03-.16-2.92-.2-5.88-.44-8.81Z"
            fill="#E28771" />
        <path
            d="M52.77 165.73c-.29-2.04-1.26-2.18-2.78-3.59-.2-.2-.45-.43-.42-.71.02-.3.35-.5.64-.64a49.86 49.86 0 0 1 22.6-4.29c4.94.24 9.79 1.2 14.73 1.58 7.93.62 11.22-3.52 18.8-1.1.95.3 1.57 7.66-.57 7.35-5.67-.85-8.22 2.82-11.9 2.82-3.98 0-7.58-3.49-11.62-2.54-3.53.82-4.82 3.67-10.49 3.67-4.25 0-7.65-4.8-15.3-2.26"
            fill="#E28771" />
        <path
            d="M53.48 165.54a4.15 4.15 0 0 0-1.12-2.35c-.3-.28-.6-.55-.93-.79l-.5-.41c-.1-.09-.55-.6-.62-.41.05-.14.57-.28.7-.34a56.1 56.1 0 0 1 2.94-1.16 49.33 49.33 0 0 1 19.72-2.8c2.82.18 5.62.57 8.42.93 2.67.35 5.38.78 8.1.64 2.04-.15 4.06-.5 6.03-1.03 1.8-.51 3.66-.8 5.53-.87a13.32 13.32 0 0 1 4.4.74s-.19-.07-.2-.12c0 .04-.04-.1.04.07s.03.04.08.19a9.8 9.8 0 0 1 .41 3.58c0 .59-.1 1.17-.27 1.73a1.8 1.8 0 0 1-.21.4c-.11.12-.04.03-.1.08.05-.03.12 0-.05 0a15.52 15.52 0 0 0-3.22-.03 12 12 0 0 0-2.73.72c-1.53.6-2.96 1.46-4.55 1.91-1.91.53-3.8-.1-5.59-.8-2-.78-4.03-1.74-6.22-1.68-1.75.03-3.3.77-4.78 1.63-1.38.9-2.9 1.57-4.51 1.95a8.91 8.91 0 0 1-4.97-.3c-1.42-.52-2.77-1.22-4.2-1.71a13.01 13.01 0 0 0-8.8 0c-.9.3-.5 1.7.39 1.41 2.07-.73 4.3-.89 6.46-.45 1.57.42 3.1.99 4.58 1.69a10.7 10.7 0 0 0 4.7 1.03c2-.06 3.97-.6 5.72-1.58 1.38-.75 2.66-1.68 4.2-2.07 2.25-.56 4.47.45 6.52 1.27 2.05.82 4.09 1.54 6.27 1.15 1.7-.31 3.22-1.25 4.8-1.91.86-.37 1.77-.64 2.69-.8 1.08-.12 2.17-.12 3.24 0 1.33.05 1.83-1.41 1.99-2.48.2-1.43.16-2.9-.13-4.31-.08-.51-.24-1.01-.5-1.46-.44-.73-1.49-.82-2.25-.98a16.22 16.22 0 0 0-6.33-.06c-1.96.34-3.85.94-5.8 1.3-2.53.38-5.11.4-7.65.04-2.94-.32-5.85-.77-8.78-1.08a52.46 52.46 0 0 0-16.85.89 49.73 49.73 0 0 0-8.08 2.53c-.92.38-2.75.82-2.6 2.12.1.98 1.33 1.66 2.03 2.24a3.05 3.05 0 0 1 1.18 2.1c.14.93 1.56.54 1.42-.39l-.02.03Z"
            fill="#E28771" />
        <path
            d="M44.64 147.56a78.65 78.65 0 0 1 11.1-4.78c3.66-1.22 7.47-2.12 11.34-2.14 1.33 0 1.33-2.05 0-2.04-4.04 0-8.05.93-11.88 2.2a83.08 83.08 0 0 0-11.6 4.99c-1.17.6-.13 2.37 1.04 1.77Z"
            fill="#182B81" />
        <path
            d="M57.47 165.82c-.35-.92-1.25-1.67-1.96-2.34-1.11-1.09-2.27-2.14-3.42-3.2a40.56 40.56 0 0 1-3.02-2.98 9.73 9.73 0 0 1-1.35-2.69c-1.14-2.87-2.05-5.85-3.37-8.67-1.32-2.82-4.17-5.45-7.56-4.95a5.03 5.03 0 0 0-3.43 2.18 5.28 5.28 0 0 0-.79 3.42c-1.26-.33-2.65-.33-3.73.38-1.24.82-1.75 2.4-1.78 3.83 0 1.47.46 2.9 1.3 4.1.32.47.67.92 1.05 1.34-.45.11-.86.33-1.2.65a3.92 3.92 0 0 0-1.1 2.44c-.25 2.15 1.16 4.14 2.83 5.34 1.96 1.38 4.37 1.99 6.7 2.28 1.4.19 2.83-.08 4.06-.78 1.41-.82 3-1.3 4.62-1.38 2.17-.05 4 .85 5.97 1.6 1.75.68 3.63 1 5.39.3.49.05.98-.3.79-.87Z"
            fill="#5755D0" />
        <path
            d="M68.55 148.14c.75.36 1.42.88 1.96 1.5.5.71.8 1.54.9 2.4.17.74.09 1.52-.22 2.23a19.3 19.3 0 0 1-1.9 2.63 1.02 1.02 0 0 0 .37 1.4 1.06 1.06 0 0 0 1.41-.36c.7-.94 1.53-1.83 2.02-2.9.46-1.13.57-2.36.3-3.55a6.81 6.81 0 0 0-1.14-2.93 7.7 7.7 0 0 0-2.68-2.2c-1.17-.6-2.21 1.15-1.04 1.77h.02ZM92.56 140.42a9.2 9.2 0 0 1 1.06 4.36 6.75 6.75 0 0 1-1.47 4.56 1.05 1.05 0 0 0 .33 1.7 1.03 1.03 0 0 0 1.14-.23c2.66-3.03 2.65-8 .72-11.4-.65-1.16-2.45-.13-1.77 1.03l-.01-.02ZM63.73 155c.14.3 0-.07-.04-.15-.05-.08-.08-.26-.11-.4a9.3 9.3 0 0 1-.18-.9v-.05l-.03-.3-.04-.48c0-.38-.05-.77-.05-1.15-.01-.72.02-1.44.11-2.15-.02.22 0-.08 0-.1 0-.02 0-.15.03-.22a7.9 7.9 0 0 1 .21-.84c0-.07.05-.13.08-.2-.05.13-.06.13 0 0a1.04 1.04 0 0 0-.37-1.4 1.04 1.04 0 0 0-1.4.36c-.68 1.38-.76 3.04-.74 4.55-.05 1.53.2 3.05.75 4.49a1.04 1.04 0 0 0 1.4.36 1.04 1.04 0 0 0 .37-1.4l.01-.01ZM75.9 124.2c2.34 4.7 4.9 9.3 7.3 13.96.6 1.18 2.39.14 1.78-1.03-2.41-4.66-4.97-9.26-7.3-13.96-.58-1.19-2.36-.15-1.77 1.03Z"
            fill="#182B81" />
        <path
            d="M68.65 140.05c2.6-5.46 5.88-10.52 8.96-15.72.67-1.14-1.1-2.17-1.78-1.03-3.06 5.2-6.36 10.26-8.95 15.72a1.06 1.06 0 0 0 .37 1.4 1.05 1.05 0 0 0 1.4-.37Z"
            fill="#182B81" />
        <path
            d="M126.04 53.9c-5.53-3.9-11.02-7.8-16.56-11.7-9-6.27-18.18-12.3-27.55-18.09-1.24-.77-2.49-1.54-3.75-2.27-.93-.54-2.03-1.3-3.02-.39-.86.8-1.52 1.95-2.2 2.93a441.6 441.6 0 0 0-3.42 4.93l-2.62 3.83-.22.31-1.02 1.24a677.46 677.46 0 0 0-15.3 19.38 543.68 543.68 0 0 0-21.1 30.48l-2.94 4.52c-.14.22-.2.47-.2.73v.03a1.17 1.17 0 0 0 .42 1.01l.05.03c.07.07.14.12.22.17l4.28 3.32c1.52 1.17 2.98 2.44 4.56 3.53 1.96 1.35 4.08 2.54 6.1 3.81l13.21 8.24 13.59 8.47c2.37 1.48 4.7 3.08 7.15 4.46l.1.07a1.47 1.47 0 0 0 1.77-.23c9.13-11 17.33-22.72 25.7-34.28 3.6-4.96 7.34-9.8 10.92-14.75a473.1 473.1 0 0 0 7.35-10.45c1.68-2.44 3.35-4.9 5.02-7.36a1.49 1.49 0 0 0-.54-1.98Z"
            fill="#FDC87A" />
        <path
            d="M75.08 22.05c2.17 12.94 2.5 26.15 2.6 39.24.03 3.58.03 7.15.03 10.73 0 1.31 2.06 1.31 2.06 0 0-13.23 0-26.49-1.3-39.66-.35-3.63-.8-7.25-1.4-10.85a1.03 1.03 0 0 0-1.27-.71 1.05 1.05 0 0 0-.72 1.25Z"
            fill="#182B81" />
        <path
            d="M80.57 71.36c-6 2.85-12.3 5.1-18.59 7.2-5.14 1.73-10.22 3.62-15.35 5.36a307.55 307.55 0 0 1-10.2 3.3c-1.26.37-.73 2.35.55 1.94a335.12 335.12 0 0 0 16.11-5.36c5.95-2.13 12-4.03 17.9-6.27a141.2 141.2 0 0 0 10.63-4.42c1.2-.56.15-2.33-1.04-1.77v.02ZM76.35 77.78c-.1 8.18-.66 16.37-1.19 24.53l-.37 5.77c-.1 1.32 1.95 1.31 2.05 0a911.3 911.3 0 0 0 1.39-24.23c.08-2.02.15-4.04.17-6.07 0-1.31-2.03-1.32-2.05 0Z"
            fill="#182B81" />
        <path
            d="M83.35 72.93c8.56-2.98 17.19-5.85 25.62-9.2 2.02-.8 4.03-1.65 6.02-2.53a1.02 1.02 0 0 0 .37-1.4 1.06 1.06 0 0 0-1.4-.37c-7.43 3.28-15.1 5.94-22.75 8.61l-8.4 2.92c-1.25.44-.71 2.42.54 1.95v.02Z"
            fill="#182B81" />
        <path
            d="M85.08 75.47c-4.03.86-8.36 2.24-12.28 2.06-1.62-.07-3.69-.34-4.89-1.25-1.2-.9-1.78-3.41-.93-5.02.9-1.73 2.98-2.48 4.77-2.8 1.41-.23 3.5.79 4.9.82-1.64-.4-3.65-2.8-3.88-4.53a5.02 5.02 0 0 1 2.52-4.8 4.16 4.16 0 0 1 3.91.05 7.4 7.4 0 0 1 2.6 2.69c2.16 3.41 3.38 8.33 3.32 12.78"
            fill="#F5855B" />
        <path
            d="M84.87 74.76c-4.59.98-9.36 2.7-14.11 1.83-.88-.16-1.96-.4-2.6-1.04a3.47 3.47 0 0 1-.87-2.25c-.1-2 1.4-3.22 3.18-3.78.92-.34 1.92-.4 2.88-.2 1.06.33 2.15.56 3.26.69a.74.74 0 0 0 .7-.64.73.73 0 0 0-.5-.8c-1.48-.4-2.85-2.1-3.26-3.54-.46-1.6.52-3.54 1.93-4.35 2.06-1.2 4.11.16 5.3 1.87a19.46 19.46 0 0 1 2.57 5.66c.68 2.36 1.01 4.81.98 7.27a.73.73 0 0 0 .74.73.74.74 0 0 0 .73-.73 26.9 26.9 0 0 0-1.08-7.77 19.05 19.05 0 0 0-3.27-6.67c-1.62-2-4.34-3-6.71-1.62a5.7 5.7 0 0 0-2.71 5.53c.32 2.11 2.3 4.47 4.4 5.04l.2-1.46c-1.1-.05-2.15-.48-3.23-.7a6.47 6.47 0 0 0-3.15.22c-2.06.6-4.03 1.95-4.36 4.22-.3 2.06.55 4.26 2.53 5.13 2.25.97 4.99 1 7.38.72 3.22-.37 6.33-1.28 9.48-1.95.92-.2.53-1.6-.4-1.41Z"
            fill="#F5855B" />
        <path
            d="m84.04 63.22-.1-.2a.96.96 0 0 1-.01-.01c-.05-.18-.13-.34-.2-.5-.18-.43-.36-.87-.57-1.29-.44-.9-1.1-1.69-1.93-2.27a1.04 1.04 0 0 0-1.4.37 1.04 1.04 0 0 0 .36 1.4l.14.1c-.25-.16-.1-.08-.04-.03a2.95 2.95 0 0 1 .43.42c.06.07.28.38.08.09a8.18 8.18 0 0 1 .89 1.57l.05.14-.03-.07.11.26c.15.36.3.72.46 1.06a1.03 1.03 0 0 0 1.4.37 1.04 1.04 0 0 0 .37-1.4l-.01-.01ZM67.22 78.85c2.3.42 4.62.61 6.94.57 1.88 0 3.74.1 5.55-.4 1.51-.45 3-.97 4.45-1.57.48-.16.94-.36 1.4-.59.62-.36.66-1.1.72-1.75.15-2.44-.07-4.89-.67-7.25-.3-1.29-2.29-.75-1.96.54a23.91 23.91 0 0 1 .57 6.93v.05l-.03.15v.04c-.07.24.06.07.42-.5-.03 0-.05.04-.07.04-.14.05-.28.11-.4.19a.97.97 0 0 1-.15.06l-.43.17a52 52 0 0 1-5 1.7l-.39.09-.17.03c-.14.02.2 0 0 0-1.07.06-2.14.02-3.2.03-2.35.08-4.69-.08-7-.48-1.28-.25-1.84 1.72-.54 1.97l-.04-.02Z"
            fill="#182B81" />
        <path
            d="M65.3 70.45a6.2 6.2 0 0 0 2.44 8.3c1.15.67 2.19-1.1 1.04-1.76a6.3 6.3 0 0 1-.36-.22l-.17-.12-.04-.04A4.23 4.23 0 0 1 67 75.05l-.05-.12-.06-.17c-.2-.53-.28-1.1-.24-1.66a4.5 4.5 0 0 1 .43-1.62 1.04 1.04 0 0 0-.36-1.4 1.04 1.04 0 0 0-1.4.37h-.02ZM74.34 67.3a4.43 4.43 0 0 1 2.77-7.25 4.47 4.47 0 0 1 3.03.65c1.13.69 2.17-1.08 1.04-1.77a6.53 6.53 0 0 0-9.94 5.6c.02 1.56.6 3.06 1.64 4.23a1.04 1.04 0 0 0 1.77-.73c0-.28-.1-.54-.3-.74l-.01.02Z"
            fill="#182B81" />
        <path
            d="M92.34 22.3c-.18-2.21-.63-4.53-1.9-6.4a7.9 7.9 0 0 0-4.95-3.33 9.71 9.71 0 0 0-6.18.92 20.37 20.37 0 0 0-5.59 4.26 36.94 36.94 0 0 0-4.2 5.15 40.38 40.38 0 0 0-3.1 5.5c.23-2.4.31-4.82.25-7.23-.07-2.48-.18-5.21-1.73-7.28a7.28 7.28 0 0 0-5.23-2.86c-2.32-.21-4.62.79-6.5 2.07a26.9 26.9 0 0 0-5.07 4.61 46.14 46.14 0 0 0-7.19 11.75 67.69 67.69 0 0 0-1.66 4.05c.48-2.37.8-4.78.95-7.2.14-2.92 0-6.05-1.08-8.8-.92-2.38-2.68-4.38-5.47-4.01-2.67.36-4.55 2.28-6.28 4.18-1.57 1.72-3.26 3.32-4.69 5.16-3.05 3.94-5.27 8.52-7.19 13.11a136.43 136.43 0 0 0-5.52 16.38.7.7 0 0 0 .04.48.6.6 0 0 0 .66.43c10.56-.84 21.1-1.82 31.65-2.79 9.9-.92 19.8-1.82 29.72-2.55 5.85-.43 11.71-.8 17.57-1.1a.76.76 0 0 0 .71-.53 107.7 107.7 0 0 0 1.96-16.37c.17-2.53.17-5.07.02-7.6ZM67.47 113.75c-.1-3.03-.05-9.75-4.8-9.2-2.32.28-4.09 2.27-5.38 4.04-.48.66-.92 1.35-1.3 2.08.05-.66.05-1.33 0-1.99a3.28 3.28 0 0 0-3.04-3.01c-3.24-.38-6.08 2.25-7.66 4.85a10.8 10.8 0 0 0-.45-2.35c-.38-1.17-1.19-2.13-2.44-2.32a5.23 5.23 0 0 0-3.43.94 13.68 13.68 0 0 0-3.91 4.18 38.04 38.04 0 0 0-3.07 6.03 88.92 88.92 0 0 0-2.37 6.48.7.7 0 0 0 .51.89.7.7 0 0 0 .38-.02c.1.04.2.05.3.05a398.1 398.1 0 0 0 33.73-2.35c1.02-.11 2.21-.11 2.64-1.23.13-.46.2-.93.2-1.41a55.06 55.06 0 0 0 .09-5.66Z"
            fill="#B5DAED" />
        <path
            d="m38.75 31.2-.8 6.83a1.02 1.02 0 0 0 1.74.71c.2-.19.3-.44.31-.71l.8-6.83a1.03 1.03 0 0 0-1.02-1.02 1.05 1.05 0 0 0-1.03 1.02ZM65.41 28.26c-.2 2.18-.54 4.33-1 6.46a1.02 1.02 0 0 0 .71 1.26 1.03 1.03 0 0 0 1.26-.71c.51-2.31.87-4.65 1.09-7a1.03 1.03 0 0 0-1.03-1.03 1.06 1.06 0 0 0-1.03 1.02ZM44.36 110.93a17 17 0 0 1-.12 3.15l.04-.27c0 .14-.04.27-.07.42-.06.26-.02.54.1.78a1.03 1.03 0 0 0 1.42.37 1 1 0 0 0 .48-.61c.21-1.27.29-2.56.22-3.84a1.02 1.02 0 0 0-1.02-1.03 1.03 1.03 0 0 0-1.03 1.03h-.02ZM55.3 110.8a12.78 12.78 0 0 0-.15 3.21c0 .27.11.53.3.73a1.03 1.03 0 0 0 1.76-.73c-.08-.86-.06-1.73.05-2.6l-.04.28c0-.11.03-.22.05-.33.07-.27.03-.55-.1-.8a1.04 1.04 0 0 0-.62-.48 1.05 1.05 0 0 0-1.28.71l.02.02ZM113.58 72.96c-4.43 6.36-9.22 12.47-13.77 18.75a1.03 1.03 0 0 0 .36 1.4 1.05 1.05 0 0 0 1.4-.37c4.56-6.28 9.35-12.38 13.79-18.74.75-1.1-1.03-2.11-1.78-1.04ZM53.3 50.13a810.1 810.1 0 0 1 28.01-2.34l8.2-.58c1.32-.1 1.33-2.15 0-2.05-9.25.68-18.51 1.25-27.75 2.09-2.82.26-5.64.54-8.46.84a1.06 1.06 0 0 0-1.02 1.02 1.03 1.03 0 0 0 1.02 1.02ZM58.48 107.57c.98-1.25 2.41-2.6 4.1-2.52 1.57.1 3.03.98 3.5 2.48.49 1.68.51 3.52.49 5.26 0 1.52-.1 3.03-.11 4.55 0 1.32 2.05 1.32 2.05 0 0-2.98.3-5.96-.15-8.93-.26-1.74-.9-3.31-2.42-4.32a6.42 6.42 0 0 0-4.7-.98c-1.88.4-3.42 1.95-4.54 3.42a1.03 1.03 0 0 0 .36 1.4 1.06 1.06 0 0 0 1.4-.37h.02Z"
            fill="#182B81" />
        <path
            d="M116.16 118.74c-.08-2.09-.11-6.24-3.43-6.02-2.7.19-4.17 4.28-4.4 4.64 0-.64-.18-2.33-.55-2.89-.77-1.16-2.38-1.21-3.61-.83-1.47.45-3.02 3.3-3.89 4.53-.04-.41.24-2.65.11-3.02a2.23 2.23 0 0 0-1.67-1.56 3.77 3.77 0 0 0-2.45.49 8.72 8.72 0 0 0-2.84 2.7 22.3 22.3 0 0 0-2.2 3.93 55.44 55.44 0 0 0-1.7 4.28c-.17.48.3.78.72.73.08.03.16.04.24.03a306.18 306.18 0 0 0 23.42-1.5c.7-.07 1.52-.05 1.9-.72.4-.66.28-1.6.3-2.3.08-.83.08-1.66.05-2.5Z"
            fill="#BCBBE3" />
        <path
            d="M110.36 24.34c2.52.65 4.72 1.92 6.17 4.11 1.31 1.95 2.05 4.23 3.01 6.34.44.97 1.92.43 1.92-.52 0-4.74 3.54-8.34 7.34-10.69 1.12-.7.09-2.47-1.04-1.77-4.4 2.74-8.34 6.98-8.31 12.46l1.91-.51c-1.01-2.26-1.8-4.67-3.25-6.7a12.3 12.3 0 0 0-7.21-4.67c-1.28-.33-1.83 1.64-.55 1.97v-.02Z"
            fill="#182B81" />
    </g>
    <defs>
        <clipPath id="a">
            <path fill="#fff" transform="translate(10 11)" d="M0 0h126v158H0z" />
        </clipPath>
    </defs>
</svg>