<svg width="225" height="151" viewBox="0 0 225 151" fill="none" xmlns="http://www.w3.org/2000/svg">
    <g clip-path="url(#a)">
        <path
            d="m219.3 15.5-.1-.4c-35 3.9-59.4 8.4-119.9 18.1-36.3 5.9-43 5.3-68 16.3 24 16.4 22.4 17.1 39.1 31.2l148.9-65.2Z"
            fill="#EDEEF6" />
        <path d="m80.9 92 138-76.1L70.4 80.8c.2 12.5.2 16.2 1.9 31.8 9.1-5 7.6-4.7 15.7-8.5l-7.1-11.2V92Z"
            fill="#DADEF2" />
        <path
            d="M79.3 89.3a.5.5 0 0 0-.3.6l.1.2L90 107.5c9 10.2 9.2 13.1 21.8 28.6l.4.2.3-.1c28-22.3 33.3-29 63-62.6 11.7-13.2 36-43.6 44.2-57.3.3-.4.5-1.6 0-1.4l-2.3.4c-23 4.7-85 37.1-85 37.1l-.3.2v.4l1 5.4a.5.5 0 0 1-.2.5L79.3 89.3Z"
            fill="#EDEEF6" />
        <path
            d="M134.9 56.2c5.3-2.4 10.5-5.2 15.7-7.8 5.2-2.6 10.5-5 15.7-7.5 8.7-4.1 17.3-8.5 26-13a878 878 0 0 1 17-8c.3 0 .5.2.7.4a1 1 0 0 1-.4 1.3c-9.2 4.4-18.3 9-27.4 13.7l-13.1 6.5c-5.2 2.5-10.4 4.7-15.5 7.3-6 3-11.7 6-17.8 8.8a1 1 0 0 1-1.3-.3 1 1 0 0 1 .4-1.4Z"
            fill="#BDBCE4" />
        <path
            d="M109 93.3c-.5 1.6-2.3 3-3.8 3.8-2.3 1.2-3.4.8-4.4 2.2-.6 1 1 2.9 3.7 2.9 3.6 0 5-.2 7.9-2.4.1-.2.3-.2.5-.3l.3.2c.9.7 1.6 1.9 2.7 1.8.8 0 1.4-1 1.6-1.8.8-2.3-.3-4.6-.7-7 0-.3.7-1 .5-1.1a53.2 53.2 0 0 0-7.4.5l-.8 1.2ZM151.6 78.5c1.5 2.3 4 3.5 6.5 4.9.3.2.6.4.8.8.4.8-.6 1.6-1.4 2a9.7 9.7 0 0 1-10-2.2c-.3-.2-.6-.4-.8-.2l-.2.3a3.8 3.8 0 0 1-1.8 2.4 1 1 0 0 1-.6.1c-.4 0-.6-.3-.8-.7-.4-1-.2-2.1 0-3.2l1.3-5 7 .8Z"
            fill="#182B81" />
        <path
            d="M68 19.5c.4-.8 2.3-1.2 2.7.4.1-2 3.8-2 3.8 0 0 0 1.8-1 2.7.8.4.7.4 1.9-.4 2.3 1.3 0 2 1.4 1.5 2.7-.3 1.1-1.3 1.3-2.6 2-.6.2-.2-.5-.8-.6l-3.2-1c-1-.4-1.1-2-1.8-2.7-1-.9-3-1.9-2-3.9Z"
            fill="#F38360" />
        <path
            d="m81.5 62.9 1.5-.1c1.1 0 2.3-.2 3.3.3 1 .4 1.9 1.4 1.6 2.4-.3 1.1-1.7 1.6-2.9 1.8a7 7 0 0 1-3 0c-1-.4-1.8-1-2-2a1.9 1.9 0 0 1 1.2-2.3l.3-.1Z"
            fill="#FFB59B" />
        <path
            d="M109.8 41.9c-6.5-6.6-7.1-20.6-7.1-20.6l-1-.4c-1.5-.6-2-1.7-2.4-3.3-.3-1.1-.1-2.3.4-3.3 1-2 4.4-2.5 6.1-1.2 1.8 1.2 2.2 2.4 2 4.5l-.3 2.5s1.1 5.5 2 7.1c2 4.1 5.8 7.4 5.7 7.7 0 .3-5.4 7-5.4 7Z"
            fill="#9D583F" />
        <path
            d="m123.7 39.2-5-3c-.8-.6-3-1.7-3.3-1.6-.3 0-5.2 6.4-7.3 8.9a.7.7 0 0 0-.3.6.7.7 0 0 0 .3.5c1.5 1.5 6.7 4.6 6.7 5 .5 7.2-1.3 12 .4 19 6.2-1.9 11.9-4.1 18-6.6.5-.2 2.5-1 2.5-1.6-.2-5.8-.4-5.6-.1-11.1l3 1.5c.2 0 1.4-2.2 1.5-2.4l3.8-6.8v-.4s0-.2-.2-.3c-5-4.2-10-5-18.9-1l-1.1-.7Z"
            fill="#F1BF5F" />
        <path
            d="M126.6 31.5c.2-.9 0-1.8-.5-2.6-.5-1-1.5-1.8-1.3-2.8a1.6 1.6 0 0 1 1.6-1.3c.6.1 1.2.4 1.7.8 1 .7 2.3 1 3.5 1.9 2 1.6 1.6 3.3.7 5.4-.4 1-1.4 1.7-2.5 2.2-.6.3-1.3-.6-2-.7a1.9 1.9 0 0 1-1.6-1.3l.4-1.6Z"
            fill="#182B81" />
        <path
            d="M125 27.2a10 10 0 0 0-3 4l-3.9 1 2.7 2s-1 3.2 1.8 4.4l.8.4v.7a2.8 2.8 0 0 0 3 2.9c1.2-.2 2-1 2.3-2.4.3-1.2.4-3.7.4-3.7s2-.8 2.2-2.2c0-1-.3-2-1.2-2.5-.9-.4-2 0-2.8.3.6-3-2.3-5-2.3-5Z"
            fill="#9D583F" />
        <path
            d="M176.2 29.5c1.7-.6 4.6-1.6 6.5-1.6 2.5 0 4 1 4.7 2.7l.4.7s3.7.9 4.3 3.2c1 3.9-1.5 6-3.4 7-4.5 2-11.8 2.5-16.6 3.7-1.4.3-5 6.2-6.2 5.3-1.1-.8.7-3.5.8-5 .2-2.1-1.3-4.7-1.1-7 .1-2 1.8-3.5 3.4-4.9l4.5-3.8 2.7-.3Z"
            fill="#182B81" />
        <path
            d="M173.3 14.3c0-2-1-3.4-2.4-3.7-1.5-.3-2-.4-3.3.4-1.5 1-1.6 1.6-1.7 2 0 1 .5 1.5 1.2 2a5.5 5.5 0 0 0 5.9-.3l.3-.4Z"
            fill="#308AE8" />
        <path
            d="M167.2 19.5c-1.6.8-5 3-6.9 6.5-1.1 2.1-1.7 4.5-1.6 6.8 0 1.8-.2 3.5-.1 5.2.2 2.3 2.2 4 3.7 5.5.7.8.8 2 1.8 1.7a3 3 0 0 0 1.3-.9c.6-.6 1 .1 1.3-.7.3-.5-.4-4.2-.4-4.2s5.4-.8 10.1-6c.9-1 1.6-2 2.1-3.2a8.4 8.4 0 0 0-.6-7.6 6.4 6.4 0 0 0 5.2-1.8 8 8 0 0 0 2.3-5.4c0-1.7-.4-3.3-.9-5a8 8 0 0 0-2.2-3c-1.4-1.3-2.3-.2-2.9 1.6-.5 1.7.4 4-.4 5.7-.5 1.1-3 1-4 1.3-.7.2-4.5.8-6.6 2.4l-1.2 1Z"
            fill="#308AE8" />
        <path
            d="M166 13c-.6 1-.8 2.2-.9 3.4 0 0-2.2 1.7-2.8 2l3.2.7c.4 1.4 1 2.3 2.2 2.6a4 4 0 0 0 3.6-1.2 4.3 4.3 0 0 0 1.2-3.3c.7 0 1.2-.4 1.5-1.2.3-.7 0-1.8-.7-2-1.6-.9-2.4.7-2.4.7-.8.3-1.7.3-2.5 0-1-.3-1.8-1-2.5-1.7ZM152.5 7.8a2.5 2.5 0 0 1-2-2.1 2.3 2.3 0 0 1 1.5-2.4 3 3 0 0 1 2.2.2l.8.6c.4.6.4 1.4.4 2.2 0 .3 0 .5-.2.8a1.5 1.5 0 0 1-1.1.8h-1.6ZM162.4 44.4a2.3 2.3 0 0 0 .8 1.7c.4.3.8.5 1.3.5.8.1 1.6 0 2.3-.5a3 3 0 0 0 1-3 3 3 0 0 0-2.1-2.1h-.3c-1.4-.2-2.6 1-2.9 2.4v1Z"
            fill="#E28771" />
        <path d="M84.5 62.8c-1.6 0-2.7.4-4.2.7-.2-1.3-.8-3.4-1.4-5.5 2.2-1 4.6-1.7 7-1.9a15 15 0 0 1-1.4 6.7Z"
            fill="#F38360" />
        <path
            d="M57.6 52.2c.2-1.6.6-3 1.2-4.5l1-2.3c.3-1.2.1-2.4 0-3.6 0-1.7 0-3.4.5-5s1.1-3.9 3.4-5c2.2-1 6.2.5 6.2.5s-.1 1.7 1.5 2.1c2.4.6 2.7-.5 3-1.4 5.8 2.3 9.6 4.5 9.5 10.4l.4 6.5c.2 1.6 1.3 4.2 1.6 5.8l.1.5c-2.4.1-4.8.8-7 1.9-.5-1.4-.8-2.8-1-4.3-.6 1-1 2.1-1.2 3.3-.4 1.4-1 3.8-1.1 3.7-1.3-1-4.4-1.4-5.8-2.2-.9-.5-1.3-1.3-2.4-1.4-10.5-.4-10.1-2.2-10-5Z"
            fill="#F38360" />
        <path
            d="M70.3 21s-2.6 2.6-2.7 4c-1.2.2-2.3.6-3.5 1l2.2 1.9s.2 2.4.4 2.9C67 32 69 32 69 32v1a2.2 2.2 0 0 0 1.1 1.9c.4.2.9.4 1.4.4.8 0 1.6-.3 2.2-.8a1.3 1.3 0 0 0 .6-1.2c0-1-.4-3.2-.3-3.8 1.2-.4 2-.8 2.3-1.5.6-1.2.4-2.8-1.1-3-1.2-.3-1.7.4-1.7.4s-.2-1.7-1.8-1.7c-2 0-1.5-2.7-1.5-2.7Z"
            fill="#FFB59B" />
        <path
            d="M171 11.4a3.7 3.7 0 0 0 .3-3.4c-.5-1-1.2-2-2.2-2.7-1.3-1.1-2.7-2-4.2-2.8-2-1-4-2-6.3-2.4-2.2-.3-4.6 0-6.4 1.5-.8.6-1.4 1.5-1.6 2.5-.2 1.4.6 3 1.8 3.8 1.2.8 2.7 1.2 4.2 1.4 2 .2 4 .2 6.1.3 2.9.3 5.7.7 8.5 1.3"
            fill="#308AE8" />
        <path
            d="M114.8 65.7c-2.1 9-3 19.5-6.8 28.1a.8.8 0 0 0 0 .8.8.8 0 0 0 .6.4 108 108 0 0 0 16.1.6c.2-.1.3-2 .3-2.2l1.5-22.2c4.5-.3 7.5-.7 12.5-.7-.7 2.1-1.3 6.6-2 8.7a.8.8 0 0 0 1 1.2 157.3 157.3 0 0 0 14.4-.9.7.7 0 0 0 .2-.5c.7-3.1 1-6.4.8-9.6-.1-1.7-.3-3.5-1.3-4.9-1.3-1.8-3.6-2.5-5.7-3a65 65 0 0 0-11-1.6l-1.8.6c-6 2.6-18.8 5.2-18.8 5.2Z"
            fill="#F38360" />
        <path
            d="M141 50.7c-.4 1.6-3.3 3.5-3.3 3.5s-1.7-.7-2.4-.7c-1.8 0-3.5 1.6-3.4 3.4.1 1.8 1.6 4.1 3.4 4.3 3.6.4 4-2.5 4-2.5s8.6-2.6 8.6-8.6c0-3.7-2-6.2-4.5-7.8-.8 1.6-2.4 3.7-3.2 5.7 0 0 1.2.5.7 2.7Z"
            fill="#9D583F" />
        <path
            d="M166.9 30.9c.2 3.2.8 6.3 1.2 9.5a1 1 0 0 1-1 1 1 1 0 0 1-1-1c-.4-3.2-1-6.3-1.2-9.5 0-1.3 2-1.3 2 0ZM65.3 41l.1 2 .3 3.2v3.9l-.5 2.4c-.4 1-2 .6-1.6-.4a10.5 10.5 0 0 0 .5-3v-3l-.3-3.2v-2c0-1 1.6-1 1.5 0Z"
            fill="#182B81" />
        <path
            d="M157.6 59.9c3.6 3.1 7 6.4 10.4 9.9.9.9-.5 2.3-1.4 1.4-3.3-3.5-6.8-6.8-10.4-10a1 1 0 0 1 .7-1.6c.3 0 .5 0 .7.3ZM159.6 55.6c3.4 3 6.6 6.2 10 9.3l1.8 1.6a1 1 0 0 1 0 1.4 1 1 0 0 1-1.3 0c-1.4-1.1-2.7-2.4-4-3.6l-5.7-5.2-2.2-2a1 1 0 0 1 0-1.5 1 1 0 0 1 1.4 0ZM169 58c1.8 1.8 4 3.5 5.9 5.3a1 1 0 0 1 0 1.4 1 1 0 0 1-1.4 0l-6-5.3a1 1 0 0 1 .7-1.7c.3 0 .5.1.7.3Z"
            fill="#B6DBEE" />
        <path
            d="M90.2 41.4c4.3 4 8.7 7.8 13.4 11.4.4.3.3 1 0 1.4a1 1 0 0 1-1.4 0c-4.6-3.6-9-7.4-13.4-11.4-1-.9.5-2.3 1.4-1.4ZM99.1 42.5l4.4 4.2a1 1 0 0 1-.8 1.6 1 1 0 0 1-.6-.3l-4.3-4a1 1 0 0 1 1.3-1.5ZM133.5 95.4c-.2.1 0-.2 0 0l-.2.2c-.2.2 0-.1 0 0l-.2.2v.2l-.1.1-.2.5v1.7l1.1 1.4a3.6 3.6 0 0 0 1.6.6h1.1a4.8 4.8 0 0 0 .9-.4c.5-.2 1-.7 1.2-1.2a3 3 0 0 0-1-3.6c-1-.8-3-1-4 0-.9 1-2.3-.5-1.4-1.3 1.6-1.6 4.2-1.7 6-.6a5 5 0 0 1 2.4 5.5 4.8 4.8 0 0 1-4.4 3.6 5.3 5.3 0 0 1-5-2.8c-1-1.9-.6-4.6 1.2-5.8a1 1 0 0 1 1.3.3 1 1 0 0 1-.3 1.4ZM126 127.4c-3.9 3.6-8.1 7-12.4 10.2a1 1 0 0 1-1.4-1.1 165.9 165.9 0 0 0 12.5-10.5c1-.9 2.3.5 1.4 1.4Z"
            fill="#BDBCE4" />
        <path
            d="M70.7 112.1a110 110 0 0 1 5.8-17.7l2-4.9a1 1 0 0 1 .7-.6 1 1 0 0 1 1 .4 583.6 583.6 0 0 0 26 37.2 290.3 290.3 0 0 0 7.9 10.2c0 .3-.1.5-.3.7a1 1 0 0 1-1.4 0 474.3 474.3 0 0 1-34-47.1l1.9-.2c-2.3 5.8-4.7 11.5-6.5 17.5a63.7 63.7 0 0 0-1.4 5.4 1 1 0 0 1-1 .3 1 1 0 0 1-.7-1.2Z"
            fill="#182B81" />
        <path
            d="m33.1 49.1.3.2c.1.1-.1 0 0 0l.1.1.7.5a78 78 0 0 0 4.8 3.5l7.2 5 3 2.3a1 1 0 0 1 0 1.4 1 1 0 0 1-1.3 0l-.2-.2c-.2 0 0 .1 0 0h-.2l-.6-.6a98 98 0 0 0-4.9-3.5l-7.2-5-3-2.3a1 1 0 0 1 0-1.4 1 1 0 0 1 1.3 0ZM198.8 30.6l3.2 2.8a1 1 0 0 1 0 1.4 1 1 0 0 1-1.4 0l-3.2-2.8a1 1 0 0 1 0-1.4 1 1 0 0 1 1.4 0ZM146.9 30.4a20 20 0 0 1 3.1 2.4 1 1 0 0 1-.7 1.7 1 1 0 0 1-.6-.3l-1.4-1.1.2.1-1.6-1.1a1 1 0 0 1-.3-1.3 1 1 0 0 1 1.3-.4Z"
            fill="#BDBCE4" />
        <path
            d="M177.8 5.4a2.7 2.7 0 0 0 .8 2c.5.4 1 .5 1.5.6 1 .1 1.9 0 2.7-.5a3.3 3.3 0 0 0 1.1-3.4 3.4 3.4 0 0 0-2.7-2.6c-1.6-.2-3 1.2-3.3 2.9l-.1 1Z"
            fill="#E28771" />
        <path
            d="M64.9 118s1.5 17.2-9.6 19.5c-3.7.7-8.6-.1-14.6-2.5A18.9 18.9 0 0 1 28 150c-11.7 3.6-24-4-24-4 1-2.2.8-1.7 2.7-4.4 8.9 5 25.1 8.4 29-8.7-3.8-2-9.8-2.7-14.3-8.4-2.7-3.4-4.5-7.3-3.8-11.6.6-4.2 3.7-8.2 8-9.4 4.7-1.2 9.9 1.4 12.8 5.3 2.9 4 3.9 9 4.3 13.8 0 .8-.4 6.7.2 7C46 131 53 133.2 56 131.4c3.4-2 4.1-10.5 4.2-14.4 3.4.3 4.7 1 4.7 1Zm-31-5.9c-1.3-2.5-5-3.9-7.6-2.4a7 7 0 0 0-3.2 7.4c.7 3.2 3.4 5.7 6.2 7.6 2 1.4 7.8 3.7 7.8 3.7A26 26 0 0 0 34 112Z"
            fill="#B5DAED" />
        <path
            d="M53.9 79.5c.5 2.4 1.4 4.5-.2 6.6-.9 1-9.1 7-10 4.4-.2-.4-.5-1.7.5-3.2l4.2-5.4c.6-.6 1.5-1 2.4-1.1 1-.2 1.6-2 1.8-1.2l1.3-.1Z"
            fill="#182B81" />
        <path
            d="M63.7 51.2c-4.3.8-6.9 2.7-11 5-1 .5-3.6 2.3-4.7 4.6-2 4-1.7 12.3-2 17.7 0 .4 0 .8.2 1.2.2.5.5.9 1 1.2a6.2 6.2 0 0 0 5 .8 5.4 5.4 0 0 0 3.7-3c.6-1.4.4-3 .4-4.4 0-1.7 1.3-3.1 1.6-4.8.1-.5.6-.9.8-1.3 1.2-2 3-2.3 4.9-3.8a4.5 4.5 0 0 0 1.6-3.6c0-1.4-.5-2.7-1-4l-.5-5.6Z"
            fill="#308AE8" />
        <path
            d="M67.6 65.9c-1.2 3 2 3.3-.8 6.1-.7.8-6.5 2.4-7.7 2.7-1.5.4-4.3 1.2-5.1.4-.6-.5-.5-2.3 1-3.8 1.4-1.8 4.8-4.2 6.5-5.8 1-1 2.3-2 3.8-2.4 1.4-.4 3.3 0 4 1.3L67.6 66Z"
            fill="#182B81" />
        <path
            d="M61.4 38.8c6 0 11.3 12.2 12 16.8a5 5 0 0 0 1.5 2.6 3.2 3.2 0 0 1 .3 4C74 64 73.1 65.9 69.4 66a3.9 3.9 0 0 0-2.8 1.2C65.4 68.5 62 69 61 69c-1.3 0-2.5-.4-3.5-1.2-1.2-.9-1.7-1.3-1.8-2.7l.5-20.3a8 8 0 0 1 1.3-4.7c1-1.2 2.6-1.2 3.9-1.2Z"
            fill="#308AE8" />
        <path
            d="M56.8 55.5 56 60c-.3 1.4-.4 2.3-.3 3.7 0 1 .4 2 1.1 2.7.7.8 1.7 1.8 2.8 2 1.2.4.7 2.3-.5 2a7.7 7.7 0 0 1-3.5-2.5c-1-1-1.6-2.2-1.8-3.6-.2-1.4 0-2.8.2-4.2l1-5.2a1 1 0 0 1 1.1-.7 1 1 0 0 1 .7 1.2Z"
            fill="#182B81" />
    </g>
    <defs>
        <clipPath id="a">
            <path fill="#fff" transform="matrix(-1 0 0 1 220 0)" d="M0 0h216v151H0z" />
        </clipPath>
    </defs>
</svg>